<svg viewBox="0 0 512 512" xmlns="http://www.w3.org/2000/svg">
  <defs>
    <radialGradient id="bg" cx="38%" cy="32%" r="72%">
      <stop offset="0%"  stop-color="#252530"/>
      <stop offset="100%" stop-color="#0f0f14"/>
    </radialGradient>
    <linearGradient id="arc-grad" x1="87" y1="354" x2="425" y2="61" gradientUnits="userSpaceOnUse">
      <stop offset="0%"   stop-color="#c02010"/>
      <stop offset="55%"  stop-color="#f73b20"/>
      <stop offset="100%" stop-color="#fb6040"/>
    </linearGradient>
    <filter id="glow-arc" x="-30%" y="-30%" width="160%" height="160%">
      <feGaussianBlur in="SourceGraphic" stdDeviation="11" result="b"/>
      <feMerge><feMergeNode in="b"/><feMergeNode in="SourceGraphic"/></feMerge>
    </filter>
    <filter id="skull-shadow">
      <feDropShadow dx="0" dy="0" stdDeviation="8" flood-color="rgba(0,0,0,0.4)"/>
    </filter>
  </defs>

  <!-- Background -->
  <rect width="512" height="512" rx="90" fill="url(#bg)"/>

  <!-- Dim track — full 270° arc -->
  <path d="M 87 354 A 195 195 0 1 1 425 354"
    fill="none" stroke="rgba(247,59,32,0.18)" stroke-width="18" stroke-linecap="round"/>

  <!-- Active arc — 75% filled, Jeton Red -->
  <path d="M 87 354 A 195 195 0 1 1 425 159"
    fill="none" stroke="url(#arc-grad)" stroke-width="18" stroke-linecap="round"
    filter="url(#glow-arc)"/>

  <!-- Skull cranium -->
  <circle cx="256" cy="232" r="84" fill="#ffffff" filter="url(#skull-shadow)"/>
  <!-- Skull jaw (overlaps cranium bottom → merges) -->
  <rect x="188" y="282" width="136" height="40" rx="14" fill="#ffffff"/>

  <!-- Eye sockets -->
  <circle cx="222" cy="224" r="22" fill="#111111"/>
  <circle cx="290" cy="224" r="22" fill="#111111"/>

  <!-- Nose cavity -->
  <ellipse cx="256" cy="262" rx="10" ry="12" fill="#111111"/>

  <!-- Teeth gaps (3) -->
  <rect x="219" y="286" width="12" height="30" rx="3" fill="#111111"/>
  <rect x="250" y="286" width="12" height="30" rx="3" fill="#111111"/>
  <rect x="281" y="286" width="12" height="30" rx="3" fill="#111111"/>
</svg>
