<svg viewBox="0 0 512 512" xmlns="http://www.w3.org/2000/svg">
  <defs>
    <radialGradient id="bg" cx="38%" cy="32%" r="72%">
      <stop offset="0%"  stop-color="#252530"/>
      <stop offset="100%" stop-color="#0f0f14"/>
    </radialGradient>
    <linearGradient id="arc-grad" x1="87" y1="354" x2="425" y2="61" gradientUnits="userSpaceOnUse">
      <stop offset="0%"   stop-color="#c02010"/>
      <stop offset="55%"  stop-color="#f73b20"/>
      <stop offset="100%" stop-color="#fb6040"/>
    </linearGradient>
    <filter id="glow-arc" x="-30%" y="-30%" width="160%" height="160%">
      <feGaussianBlur in="SourceGraphic" stdDeviation="11" result="b"/>
      <feMerge><feMergeNode in="b"/><feMergeNode in="SourceGraphic"/></feMerge>
    </filter>
  </defs>

  <!-- Background -->
  <rect width="512" height="512" rx="90" fill="url(#bg)"/>

  <!-- Dim track — full 270° arc -->
  <path d="M 87 354 A 195 195 0 1 1 425 354"
    fill="none" stroke="rgba(247,59,32,0.18)" stroke-width="18" stroke-linecap="round"/>

  <!-- Active arc — 75% filled, Jeton Red -->
  <path d="M 87 354 A 195 195 0 1 1 425 159"
    fill="none" stroke="url(#arc-grad)" stroke-width="18" stroke-linecap="round"
    filter="url(#glow-arc)"/>

  <!-- Banana (Lucide, scaled from 24×24 to ~340px centered in 512) -->
  <g transform="translate(86, 86) scale(14.17)">
    <path d="M4 13c3.5-2 8-2 10 2a5.5 5.5 0 0 1 8 5"
      fill="none" stroke="#ffffff" stroke-width="1.6" stroke-linecap="round" stroke-linejoin="round"/>
    <path d="M5.15 17.89c5.52-1.52 8.65-6.89 7-12C11.55 4 11.5 2 13 2c3.22 0 5 5.5 5 8 0 6.5-4.2 12-10.49 12C5.11 22 2 22 2 20c0-1.5 1.14-1.55 3.15-2.11Z"
      fill="none" stroke="#ffffff" stroke-width="1.6" stroke-linecap="round" stroke-linejoin="round"/>
  </g>
</svg>
